HIERARCHY
ROOT SimulationBone
{
	OFFSET 0.000000 0.000000 0.000000
	CHANNELS 6 Xposition Yposition Zposition Zrotation Yrotation Xrotation 
	JOINT Hips
	{
		OFFSET 0.000000 0.000000 0.000000
		CHANNELS 6 Xposition Yposition Zposition Zrotation Yrotation Xrotation 
		JOINT LeftUpLeg
		{
			OFFSET 0.103458 1.857820 10.548502
			CHANNELS 3 Zrotation Yrotation Xrotation
			JOINT LeftLeg
			{
				OFFSET 43.500000 -0.000023 -0.000011
				CHANNELS 3 Zrotation Yrotation Xrotation
				JOINT LeftFoot
				{
					OFFSET 42.372192 0.000038 0.000002
					CHANNELS 3 Zrotation Yrotation Xrotation
					JOINT LeftToe
					{
						OFFSET 17.299992 -0.000004 0.000006
						CHANNELS 3 Zrotation Yrotation Xrotation
						End Site
						{
							OFFSET 0.000000 0.000000 0.000000
						}
					}
				}
			}
		}
		JOINT RightUpLeg
		{
			OFFSET 0.103461 1.857814 -10.548508
			CHANNELS 3 Zrotation Yrotation Xrotation
			JOINT RightLeg
			{
				OFFSET 43.500042 -0.000015 0.000008
				CHANNELS 3 Zrotation Yrotation Xrotation
				JOINT RightFoot
				{
					OFFSET 42.372253 0.000008 0.000006
					CHANNELS 3 Zrotation Yrotation Xrotation
					JOINT RightToe
					{
						OFFSET 17.299973 -0.000014 0.000011
						CHANNELS 3 Zrotation Yrotation Xrotation
						End Site
						{
							OFFSET 0.000000 0.000000 0.000000
						}
					}
				}
			}
		}
		JOINT Spine
		{
			OFFSET 6.901966 -2.603737 -0.000007
			CHANNELS 3 Zrotation Yrotation Xrotation
			JOINT Spine1
			{
				OFFSET 12.588102 0.000017 0.000001
				CHANNELS 3 Zrotation Yrotation Xrotation
				JOINT Spine2
				{
					OFFSET 12.343197 -0.000013 0.000000
					CHANNELS 3 Zrotation Yrotation Xrotation
					JOINT Neck
					{
						OFFSET 25.832905 -0.000008 0.000000
						CHANNELS 3 Zrotation Yrotation Xrotation
						JOINT Head
						{
							OFFSET 11.766610 0.000009 -0.000002
							CHANNELS 3 Zrotation Yrotation Xrotation
							End Site
							{
								OFFSET 0.000000 0.000000 0.000000
							}
						}
					}
					JOINT LeftShoulder
					{
						OFFSET 19.745903 -1.480377 6.000115
						CHANNELS 3 Zrotation Yrotation Xrotation
						JOINT LeftArm
						{
							OFFSET 11.284125 -0.000014 -0.000024
							CHANNELS 3 Zrotation Yrotation Xrotation
							JOINT LeftForeArm
							{
								OFFSET 33.000046 -0.000012 0.000029
								CHANNELS 3 Zrotation Yrotation Xrotation
								JOINT LeftHand
								{
									OFFSET 25.199989 0.000034 0.000012
									CHANNELS 3 Zrotation Yrotation Xrotation
									End Site
									{
										OFFSET 0.000000 0.000000 0.000000
									}
								}
							}
						}
					}
					JOINT RightShoulder
					{
						OFFSET 19.746098 -1.480362 -6.000071
						CHANNELS 3 Zrotation Yrotation Xrotation
						JOINT RightArm
						{
							OFFSET 11.284137 -0.000006 -0.000008
							CHANNELS 3 Zrotation Yrotation Xrotation
							JOINT RightForeArm
							{
								OFFSET 33.000095 0.000017 0.000000
								CHANNELS 3 Zrotation Yrotation Xrotation
								JOINT RightHand
								{
									OFFSET 25.199778 0.000144 0.000423
									CHANNELS 3 Zrotation Yrotation Xrotation
									End Site
									{
										OFFSET 0.000000 0.000000 0.000000
									}
								}
							}
						}
					}
				}
			}
		}
	}
}
MOTION
Frames: 9
Frame Time: 0.033333
-167.004876 0.000000 479.767727 0.000000 220.671793 0.000000 5.186436 84.077988 -4.483110 106.066782 -6.690178 176.832782 169.377954 -5.243393 -173.818219 -40.043531 -9.410276 -1.034846 80.998749 -0.814687 -7.568689 21.454558 0.003112 0.000016 169.218756 -1.801611 -177.742723 -82.324127 -0.623827 6.096877 72.228970 -3.419630 2.780037 21.454560 -0.003091 -0.000002 9.605260 0.273267 1.669929 9.203815 0.412935 3.356258 8.886296 0.433049 3.353689 16.760084 1.647654 1.668440 -4.281979 -2.778827 2.459612 -146.234992 -70.695716 -36.136004 21.671125 41.365524 45.076984 -79.494584 -9.917193 2.576557 -3.751237 1.528119 44.648291 -173.124395 75.883839 8.518003 -7.421672 -56.031566 -23.703874 -111.940394 0.039918 -3.274543 -3.290611 -15.896736 -27.435932 
-169.152349 0.000000 482.597520 0.000000 217.508850 0.000000 4.671900 84.682358 -4.718912 105.597432 -7.203693 177.677671 172.379467 -5.399309 -178.211930 -39.633935 -8.148363 -0.164055 82.913975 -1.206643 -7.006296 21.454557 0.003107 0.000017 165.377485 0.108400 -175.280426 -81.994010 -0.561895 7.912425 72.567290 -4.669896 2.970921 21.454555 -0.003093 0.000002 9.646184 0.258627 1.338552 9.284431 0.409116 2.693492 8.966691 0.425220 2.690974 17.795916 2.340627 1.613636 -4.479751 -2.623422 2.368850 -149.989001 -71.235820 -32.260028 14.397363 42.248606 42.302961 -76.087126 -12.545147 2.612993 0.092158 5.466790 53.392719 -167.703902 74.870901 14.061433 -2.980104 -57.197117 -26.374357 -106.579003 0.644292 -3.084815 -3.584311 -12.847419 -26.330273 
-171.370799 0.000000 485.235810 0.000000 214.222469 0.000000 4.084174 85.655899 -4.820409 105.091911 -7.709347 178.748198 176.375565 -5.019607 -179.321330 -36.526404 -8.174682 -1.135162 83.598155 -0.471920 -7.042073 21.454558 0.003097 0.000017 162.254067 1.764096 -173.771474 -77.990194 0.329948 7.734378 71.916469 -4.896389 1.955122 21.454557 -0.003091 0.000001 9.674037 0.266902 0.750089 9.338467 0.472464 1.519251 9.020467 0.481485 1.516357 18.674111 3.094886 1.912959 -3.612724 -3.359717 2.824911 -151.105013 -71.424914 -31.105952 9.948791 43.716605 37.800326 -76.182298 -12.850299 2.638433 5.897669 9.386169 62.542635 -165.751916 74.298142 16.062976 1.612343 -57.916213 -29.274983 -101.959391 1.660492 -2.952505 1.511019 -7.161034 -37.210071 
-173.639221 0.000000 487.685459 0.000000 210.835380 0.000000 3.506168 86.703743 -4.745811 104.149344 -7.892262 -179.893797 -179.707796 -4.539700 -179.610015 -32.334761 -7.833066 -2.643617 83.527401 0.477608 -7.567321 21.454557 0.003109 0.000016 159.858829 2.530698 -173.753838 -70.848227 2.501946 6.651014 72.636781 -4.313187 1.608144 21.454557 -0.003096 0.000000 9.592065 0.383810 0.124234 9.172411 0.756610 0.278484 8.854281 0.758144 0.273902 19.016058 3.440506 2.076866 -3.248021 -3.881970 3.100412 -150.733054 -71.932281 -31.473980 6.292990 45.394810 34.111556 -78.016852 -12.466378 2.690796 10.162033 10.145205 67.218610 -163.489320 73.624965 18.387832 5.300141 -57.619148 -31.929526 -99.518281 2.994988 -2.937572 7.697178 -2.412611 -65.890712 
-175.949057 0.000000 489.947270 0.000000 207.376608 0.000000 2.966719 87.525612 -4.543820 102.693765 -7.641936 -178.461310 -176.494998 -4.311491 179.819073 -28.381777 -7.058053 -4.053510 83.368449 1.290614 -8.261734 21.454560 0.003106 0.000017 158.159410 2.054993 -173.398723 -60.769976 3.844008 6.297707 73.069596 -4.357098 0.808974 21.454548 -0.003089 0.000000 9.399461 0.583469 -0.406745 8.782541 1.196137 -0.768089 8.464405 1.191341 -0.775302 18.622509 3.906454 1.905981 -2.946677 -4.301914 3.022511 -150.769077 -73.198796 -31.399992 3.690211 46.902226 30.854082 -80.259866 -11.332224 2.708977 9.003636 8.066892 67.185648 -161.086460 72.928129 20.861418 8.237941 -56.864853 -32.919384 -97.712543 3.901963 -2.920817 11.467008 -0.526262 -97.234874 
-178.299527 0.000000 492.012924 0.000000 203.880724 0.000000 2.483367 87.988113 -4.318301 101.011742 -7.524257 -176.886268 -173.820296 -3.892896 178.944700 -24.881901 -6.170730 -5.243547 83.278174 1.942196 -8.998313 21.454558 0.003110 0.000018 157.454083 1.376914 -172.442879 -48.425870 4.499326 7.591050 73.220202 -5.289363 0.849325 21.454551 -0.003092 0.000002 9.190827 0.730839 -0.894250 8.357988 1.524315 -1.733558 8.039957 1.513689 -1.742736 17.821186 4.735764 1.789943 -3.193725 -4.445165 2.983364 -152.390987 -74.836327 -29.692055 1.930491 47.921481 26.510367 -83.405270 -9.454087 2.715466 5.731424 6.398668 64.737749 -158.938748 72.113697 23.079884 11.025039 -55.483969 -31.329968 -96.068339 4.214382 -2.869546 14.927633 -2.873353 -109.362291 
-180.705091 0.000000 493.886950 0.000000 200.360196 0.000000 2.043941 88.236366 -4.133785 99.612895 -7.614124 -175.181002 -170.754374 -3.465196 177.504882 -21.072044 -5.657009 -5.893034 83.004243 2.291985 -9.375944 21.454562 0.003104 0.000016 158.360326 0.415297 -170.206880 -34.093234 3.728144 10.593909 72.766889 -6.986617 2.291415 21.454550 -0.003092 -0.000001 9.088931 0.779627 -1.406516 8.145935 1.656220 -2.754972 7.828091 1.639419 -2.764920 16.677939 6.052125 1.662164 -3.565414 -4.820858 3.034233 -151.645062 -77.273434 -30.387932 0.363178 49.136955 21.450976 -87.121590 -6.940121 2.703962 2.504120 3.364279 60.220986 -156.903324 71.652339 25.181086 12.195269 -54.509616 -27.514661 -94.441401 4.443361 -2.813172 16.979541 -3.562428 -104.645998 
-183.163996 0.000000 495.569188 0.000000 196.796593 0.000000 1.656147 88.178864 -4.015540 98.262381 -7.695460 -173.854987 -167.678904 -2.913102 176.535050 -17.446443 -5.630138 -6.918103 83.168659 2.944056 -9.769802 21.454557 0.003106 0.000016 159.621644 -0.789997 -165.834124 -20.434977 1.890337 13.251120 73.808124 -8.982899 1.786442 21.454550 -0.003091 -0.000002 8.958870 0.826229 -1.798385 7.878446 1.772800 -3.536795 7.560838 1.751283 -3.547427 16.020473 6.283308 1.686055 -3.696243 -4.468515 3.021649 -152.030053 -79.372898 -29.938949 -0.642857 49.728681 15.746487 -90.954569 -4.063569 2.673583 -0.092246 1.208001 55.850713 -154.299984 72.132562 27.846314 12.508958 -54.067361 -23.204118 -92.167420 4.631304 -2.725193 17.941498 -4.249075 -93.091660 
-185.682226 0.000000 497.073360 0.000000 193.195530 0.000000 1.504530 87.684937 -4.120579 97.798740 -8.214441 -173.662345 -164.297154 -1.492798 174.764802 -15.582156 -5.325727 -7.789333 83.851835 3.466643 -10.466917 21.454560 0.003105 0.000018 160.632457 -1.800398 -164.191218 -12.252619 1.113714 17.532063 75.620760 -12.063738 1.238237 21.454551 -0.003092 -0.000004 8.985972 0.774591 -1.890738 7.932691 1.676800 -3.724339 7.615164 1.654153 -3.734386 15.880098 5.762495 1.451134 -3.975098 -4.148449 2.702177 -152.563968 -80.969693 -29.355972 -2.312441 49.616202 10.495233 -94.527899 -2.614571 2.732219 -1.679097 0.222339 50.915860 -151.880622 72.865216 30.311229 12.188516 -53.444683 -20.148834 -90.194806 5.350418 -2.687939 19.575476 -4.959905 -83.607710 
